<svg width="66" height="66" viewBox="0 0 66 66" fill="none" xmlns="http://www.w3.org/2000/svg">
<path d="M66 33C66 51.2254 51.2254 66 33 66C14.7746 66 0 51.2254 0 33C0 14.7746 14.7746 0 33 0C51.2254 0 66 14.7746 66 33Z" fill="#BDBDBD"/>
<path fill-rule="evenodd" clip-rule="evenodd" d="M11.5851 58.1086C12.1781 50.8483 17.265 39.6406 23.5324 37.8987C24.0556 37.7533 24.6724 37.6099 25.0998 37.9449C27.5144 39.824 30.4427 40.8441 33.5252 40.8441C36.6076 40.8441 39.5359 39.824 41.8991 37.9986C42.156 37.8375 42.4128 37.7302 42.6697 37.7838C49.283 38.6919 53.9373 50.4894 54.4752 58.057C61.5303 52.0048 66 43.0244 66 33C66 14.7746 51.2254 0 33 0C14.7746 0 0 14.7746 0 33C0 43.0529 4.49515 52.0559 11.5851 58.1086ZM33.525 37.6228C39.7413 37.6228 44.8273 32.3076 44.8273 25.8114C44.8273 19.3151 39.7413 14 33.525 14C27.3088 14 22.2228 19.3151 22.2228 25.8114C22.2228 32.3076 27.3088 37.6228 33.525 37.6228Z" fill="#ECECEC"/>
</svg>
