<svg width="57" height="44" viewBox="0 0 57 44" fill="none" xmlns="http://www.w3.org/2000/svg">
<path d="M48.1575 33.3292C45.2472 33.3292 42.822 35.6851 42.822 38.6646C42.822 41.6441 45.1779 44 48.1575 44C51.137 44 53.4929 41.6441 53.4929 38.6646C53.4929 35.6851 51.0677 33.3292 48.1575 33.3292ZM48.1575 41.2284C46.7716 41.2284 45.5937 40.1197 45.5937 38.6646C45.5937 37.2095 46.7023 36.1008 48.1575 36.1008C49.6126 36.1008 50.7212 37.2095 50.7212 38.6646C50.7212 40.1197 49.5433 41.2284 48.1575 41.2284Z" fill="#00F260"/>
<path d="M21.134 33.3292C18.2238 33.3292 15.7986 35.6851 15.7986 38.6646C15.7986 41.6441 18.1545 44 21.134 44C24.1135 44 26.4694 41.6441 26.4694 38.6646C26.4694 35.6851 24.0443 33.3292 21.134 33.3292ZM21.134 41.2284C19.7482 41.2284 18.5702 40.1197 18.5702 38.6646C18.5702 37.2095 19.6789 36.1008 21.134 36.1008C22.5891 36.1008 23.6978 37.2095 23.6978 38.6646C23.6978 40.1197 22.5198 41.2284 21.134 41.2284Z" fill="#00F260"/>
<path d="M11.5717 0H0V2.77165H9.70079L13.6504 11.9181L19.5402 30.1417H50.5134L56.126 10.0472H15.8677L11.5717 0ZM52.5228 12.8189L48.4346 27.3701H21.5496L16.9071 12.8189H52.5228Z" fill="#00F260"/>
</svg>
