<svg width="27" height="27" viewBox="0 0 27 27" fill="none" xmlns="http://www.w3.org/2000/svg">
<path d="M23.767 3.14563C19.5728 -1.04854 12.699 -1.04854 8.50485 3.14563C4.8932 6.75728 4.31068 12.3495 6.87379 16.5437L0.699029 22.6019C-0.23301 23.6505 -0.23301 25.2816 0.699029 26.2136C1.74757 27.2621 3.37864 27.2621 4.42718 26.2136L10.4854 20.1553C14.6796 22.7184 20.1553 22.1359 23.767 18.5243C28.0777 14.3301 28.0777 7.45631 23.767 3.14563ZM21.5534 5.47573C24.466 8.50485 24.466 13.2816 21.5534 16.1942C18.5243 19.2233 13.7476 19.2233 10.7184 16.1942C7.80583 13.2816 7.80583 8.50485 10.7184 5.47573C13.7476 2.56311 18.5243 2.56311 21.5534 5.47573Z" fill="#00F260"/>
<path d="M20.7378 10.6019C20.7378 11.767 22.6018 11.6505 22.4853 10.4854C22.3688 8.85437 21.6698 7.45631 20.6213 6.40777C19.5727 5.24272 18.0582 4.66019 16.5436 4.54369C15.3785 4.42718 15.262 6.17476 16.4271 6.29126C17.4756 6.40777 18.5242 6.87379 19.3397 7.68932C20.1552 8.50485 20.6213 9.43689 20.7378 10.6019Z" fill="#00F260"/>
</svg>
