<svg width="162" height="55" viewBox="0 0 162 55" fill="none" xmlns="http://www.w3.org/2000/svg">
<path d="M19.74 23.11C19.74 23.41 19.58 23.76 19.26 24.16C18.94 24.56 18.59 24.76 18.21 24.76H1.5C1.28 24.76 0.97 24.62 0.57 24.34C0.19 24.04 0 23.79 0 23.59V7.03C0 6.71 0.17 6.44 0.51 6.22C1.01 5.86 2.57 4.91 5.19 3.37C7.95 1.73 9.42 0.909999 9.6 0.909999H18.39C18.69 0.909999 18.99 1.1 19.29 1.48C19.59 1.86 19.74 2.2 19.74 2.5C19.74 2.8 19.58 3.15 19.26 3.55C18.94 3.95 18.59 4.15 18.21 4.15H10.23C10.15 4.15 9.25 4.68 7.53 5.74C5.21 7.14 3.78 8.01 3.24 8.35V21.55H18.54C18.8 21.55 19.06 21.76 19.32 22.18C19.6 22.58 19.74 22.89 19.74 23.11ZM41.0123 23.14C41.0123 24.22 40.4823 24.76 39.4223 24.76C38.8823 24.76 38.4523 24.54 38.1323 24.1C37.9323 23.84 37.7223 23.38 37.5023 22.72C37.3023 22.06 37.1323 21.63 36.9923 21.43H25.1723C25.0123 21.61 24.8323 22.03 24.6323 22.69C24.4323 23.35 24.2423 23.81 24.0623 24.07C23.7423 24.53 23.3023 24.76 22.7423 24.76C21.6823 24.76 21.1523 24.22 21.1523 23.14C21.1523 22.9 21.7523 21.29 22.9523 18.31C24.5923 14.21 26.8923 8.61 29.8523 1.51C29.8923 1.43 30.0723 1.32 30.3923 1.18C30.7123 1.02 30.9423 0.939999 31.0823 0.939999C31.6823 0.939999 32.1423 1.22 32.4623 1.78C32.5223 1.88 32.7323 2.39 33.0923 3.31C33.3723 4.03 33.7723 5.03 34.2923 6.31C35.5323 9.31 36.7623 12.3 37.9823 15.28C40.0023 20.24 41.0123 22.86 41.0123 23.14ZM35.6423 18.16L31.0823 6.85L26.5223 18.16H35.6423ZM63.5681 16.57C63.5681 16.87 63.3881 17.21 63.0281 17.59C62.6881 17.95 62.3581 18.13 62.0381 18.13H47.0681V23.62C47.0681 23.84 46.8481 24.09 46.4081 24.37C45.9881 24.63 45.6781 24.76 45.4781 24.76C45.1781 24.76 44.8281 24.61 44.4281 24.31C44.0281 23.99 43.8281 23.64 43.8281 23.26V2.44C43.8281 2.2 43.9681 1.89 44.2481 1.51C44.5281 1.11 44.8381 0.909999 45.1781 0.909999H53.9681C54.1281 0.909999 55.3881 1.61 57.7481 3.01C59.4081 3.99 61.0681 4.98 62.7281 5.98C62.8081 6.02 62.9681 6.17 63.2081 6.43C63.4481 6.69 63.5681 6.89 63.5681 7.03V16.57ZM60.3281 14.89V8.29L53.3381 4.15H47.0681V14.89H60.3281ZM69.2752 23.29C69.2752 23.63 69.0752 23.96 68.6752 24.28C68.2952 24.6 67.9452 24.76 67.6252 24.76C67.4052 24.76 67.1052 24.65 66.7252 24.43C66.2652 24.15 66.0352 23.87 66.0352 23.59V2.11C66.0352 1.85 66.2552 1.58 66.6952 1.3C67.0752 1.04 67.3852 0.909999 67.6252 0.909999C67.9252 0.909999 68.2752 1.07 68.6752 1.39C69.0752 1.71 69.2752 2.05 69.2752 2.41V23.29ZM92.692 2.56C92.692 2.72 92.082 4.33 90.862 7.39C88.142 14.25 85.852 19.84 83.992 24.16C83.952 24.26 83.772 24.39 83.452 24.55C83.132 24.69 82.902 24.76 82.762 24.76C82.222 24.76 81.772 24.48 81.412 23.92C81.292 23.72 81.072 23.21 80.752 22.39C80.752 22.37 80.342 21.37 79.522 19.39L72.862 3.01C72.842 2.97 72.832 2.82 72.832 2.56C72.832 2.08 72.972 1.69 73.252 1.39C73.552 1.09 73.942 0.939999 74.422 0.939999C74.522 0.939999 74.632 0.929999 74.752 0.909999C74.892 0.869998 74.982 0.849998 75.022 0.849998C75.222 0.849998 75.422 1.04 75.622 1.42C76.782 3.68 78.032 6.55 79.372 10.03C80.512 12.97 81.642 15.91 82.762 18.85C84.282 14.97 86.652 9.17 89.872 1.45C89.952 1.29 90.202 1.13 90.622 0.969998C90.662 0.949998 90.822 0.939999 91.102 0.939999C92.162 0.939999 92.692 1.48 92.692 2.56ZM115.339 23.14C115.339 24.22 114.809 24.76 113.749 24.76C113.209 24.76 112.779 24.54 112.459 24.1C112.259 23.84 112.049 23.38 111.829 22.72C111.629 22.06 111.459 21.63 111.319 21.43H99.4985C99.3385 21.61 99.1585 22.03 98.9585 22.69C98.7585 23.35 98.5685 23.81 98.3885 24.07C98.0685 24.53 97.6285 24.76 97.0685 24.76C96.0085 24.76 95.4785 24.22 95.4785 23.14C95.4785 22.9 96.0785 21.29 97.2785 18.31C98.9185 14.21 101.219 8.61 104.179 1.51C104.219 1.43 104.399 1.32 104.719 1.18C105.039 1.02 105.269 0.939999 105.409 0.939999C106.009 0.939999 106.469 1.22 106.789 1.78C106.849 1.88 107.059 2.39 107.419 3.31C107.699 4.03 108.099 5.03 108.619 6.31C109.859 9.31 111.089 12.3 112.309 15.28C114.329 20.24 115.339 22.86 115.339 23.14ZM109.969 18.16L105.409 6.85L100.849 18.16H109.969ZM137.894 20.44C137.894 20.52 137.904 20.73 137.924 21.07C137.924 21.41 137.924 21.69 137.924 21.91C137.924 23.81 137.354 24.76 136.214 24.76C136.014 24.76 135.724 24.65 135.344 24.43C134.884 24.15 134.654 23.87 134.654 23.59V18.94C132.394 17.54 130.054 16.14 127.634 14.74H121.394V23.62C121.394 23.84 121.174 24.09 120.734 24.37C120.314 24.63 120.004 24.76 119.804 24.76C119.504 24.76 119.154 24.61 118.754 24.31C118.354 23.99 118.154 23.64 118.154 23.26V2.44C118.154 2.2 118.294 1.89 118.574 1.51C118.854 1.11 119.164 0.909999 119.504 0.909999H128.294C128.494 0.909999 129.094 1.22 130.094 1.84C131.294 2.54 133.074 3.6 135.434 5.02C135.934 5.32 136.424 5.61 136.904 5.89C137.524 6.31 137.844 6.69 137.864 7.03C137.884 8.55 137.894 9.57 137.894 10.09C137.894 12.23 137.824 13.45 137.684 13.75C137.404 14.41 136.854 14.74 136.034 14.74C135.914 14.74 135.724 14.73 135.464 14.71C135.224 14.69 135.044 14.68 134.924 14.68C134.604 14.68 134.324 14.72 134.084 14.8C135.804 15.72 136.874 16.39 137.294 16.81C137.714 17.21 137.924 17.82 137.924 18.64C137.924 18.78 137.914 19.05 137.894 19.45C137.894 19.85 137.894 20.18 137.894 20.44ZM134.654 11.5V8.29L127.664 4.15H121.394V11.5H134.654ZM161.188 23.14C161.188 24.22 160.658 24.76 159.598 24.76C159.058 24.76 158.628 24.54 158.308 24.1C158.108 23.84 157.898 23.38 157.678 22.72C157.478 22.06 157.308 21.63 157.168 21.43H145.348C145.188 21.61 145.008 22.03 144.808 22.69C144.608 23.35 144.418 23.81 144.238 24.07C143.918 24.53 143.478 24.76 142.918 24.76C141.858 24.76 141.328 24.22 141.328 23.14C141.328 22.9 141.928 21.29 143.128 18.31C144.768 14.21 147.068 8.61 150.028 1.51C150.068 1.43 150.248 1.32 150.568 1.18C150.888 1.02 151.118 0.939999 151.258 0.939999C151.858 0.939999 152.318 1.22 152.638 1.78C152.698 1.88 152.908 2.39 153.268 3.31C153.548 4.03 153.948 5.03 154.468 6.31C155.708 9.31 156.938 12.3 158.158 15.28C160.178 20.24 161.188 22.86 161.188 23.14ZM155.818 18.16L151.258 6.85L146.698 18.16H155.818ZM19.74 46.57C19.74 46.87 19.56 47.21 19.2 47.59C18.86 47.95 18.53 48.13 18.21 48.13H3.24V53.62C3.24 53.84 3.02 54.09 2.58 54.37C2.16 54.63 1.85 54.76 1.65 54.76C1.35 54.76 1 54.61 0.6 54.31C0.2 53.99 0 53.64 0 53.26V32.44C0 32.2 0.14 31.89 0.42 31.51C0.7 31.11 1.01 30.91 1.35 30.91H10.14C10.3 30.91 11.56 31.61 13.92 33.01C15.58 33.99 17.24 34.98 18.9 35.98C18.98 36.02 19.14 36.17 19.38 36.43C19.62 36.69 19.74 36.89 19.74 37.03V46.57ZM16.5 44.89V38.29L9.51 34.15H3.24V44.89H16.5ZM37.327 53.11C37.327 53.41 37.167 53.76 36.847 54.16C36.527 54.56 36.187 54.76 35.827 54.76H23.707C23.487 54.76 23.177 54.62 22.777 54.34C22.397 54.04 22.207 53.79 22.207 53.59V32.11C22.207 31.85 22.427 31.58 22.867 31.3C23.247 31.04 23.557 30.91 23.797 30.91C24.097 30.91 24.447 31.07 24.847 31.39C25.247 31.71 25.447 32.05 25.447 32.41V51.55H36.157C36.397 51.55 36.647 51.76 36.907 52.18C37.187 52.58 37.327 52.89 37.327 53.11ZM58.7955 53.14C58.7955 54.22 58.2655 54.76 57.2055 54.76C56.6655 54.76 56.2355 54.54 55.9155 54.1C55.7155 53.84 55.5055 53.38 55.2855 52.72C55.0855 52.06 54.9155 51.63 54.7755 51.43H42.9555C42.7955 51.61 42.6155 52.03 42.4155 52.69C42.2155 53.35 42.0255 53.81 41.8455 54.07C41.5255 54.53 41.0855 54.76 40.5255 54.76C39.4655 54.76 38.9355 54.22 38.9355 53.14C38.9355 52.9 39.5355 51.29 40.7355 48.31C42.3755 44.21 44.6755 38.61 47.6355 31.51C47.6755 31.43 47.8555 31.32 48.1755 31.18C48.4955 31.02 48.7255 30.94 48.8655 30.94C49.4655 30.94 49.9255 31.22 50.2455 31.78C50.3055 31.88 50.5155 32.39 50.8755 33.31C51.1555 34.03 51.5555 35.03 52.0755 36.31C53.3155 39.31 54.5455 42.3 55.7655 45.28C57.7855 50.24 58.7955 52.86 58.7955 53.14ZM53.4255 48.16L48.8655 36.85L44.3055 48.16H53.4255ZM81.3513 32.53C81.3513 33.13 80.3313 34.61 78.2913 36.97C77.3513 38.17 75.6213 40.32 73.1013 43.42V53.62C73.1013 53.84 72.8813 54.09 72.4413 54.37C72.0213 54.63 71.7113 54.76 71.5113 54.76C71.2113 54.76 70.8613 54.61 70.4613 54.31C70.0613 53.99 69.8613 53.64 69.8613 53.26V43.42C68.0413 41.2 65.3513 37.84 61.7913 33.34C61.6713 33.16 61.6113 32.89 61.6113 32.53C61.6113 32.07 61.7513 31.69 62.0313 31.39C62.3313 31.07 62.7213 30.91 63.2013 30.91C63.7213 30.91 64.0813 31.04 64.2813 31.3C65.8613 33.3 68.2513 36.3 71.4513 40.3C72.5313 39.04 74.2713 36.86 76.6713 33.76C77.0913 33.18 77.7113 32.4 78.5313 31.42C78.8913 31.08 79.3013 30.91 79.7613 30.91C80.8213 30.91 81.3513 31.45 81.3513 32.53Z" fill="#00F260"/>
</svg>
